# xmcd
#
# Track frame offsets: 
#        183
#        22208
#        42355
#        71333
#
# Disc length: 1138 seconds
#
# Revision: 2
# Processed by: cddbd v1.5.2PL0 Copyright (c) Steve Scherf et al.
# Submitted via: ExactAudioCopy v0.95b4
#
DISCID=31047004
DTITLE=Cowboy Junkies - Southern Rain
DYEAR=1992
DGENRE=Country
TTITLE0=Southern Rain
TTITLE1=Murder, Tonight, In The Trailer Park
TTITLE2=Lost My Driving Wheel
TTITLE3=If You Gotta Go, Go Now
EXTD=ID3G: 2
EXTT0=
EXTT1=
EXTT2=
EXTT3=
PLAYORDER=
